<svg xmlns="http://www.w3.org/2000/svg" width="1200" height="630" viewBox="0 0 1200 630" role="img" aria-label="Sprout — install-fixer CLI for developer tools">
  <defs>
    <linearGradient id="bg" x1="0%" y1="0%" x2="100%" y2="100%">
      <stop offset="0%" stop-color="#65A30D"/>
      <stop offset="42%" stop-color="#84CC16"/>
      <stop offset="100%" stop-color="#D9F99D"/>
    </linearGradient>
    <linearGradient id="icon-bg" x1="0%" y1="0%" x2="100%" y2="100%">
      <stop offset="0%" stop-color="#1A1D13"/>
      <stop offset="100%" stop-color="#2D3220"/>
    </linearGradient>
    <filter id="shadow" x="-20%" y="-20%" width="140%" height="140%">
      <feDropShadow dx="0" dy="8" stdDeviation="16" flood-color="#1A1D13" flood-opacity="0.18"/>
    </filter>
  </defs>
  <rect width="1200" height="630" fill="url(#bg)"/>
  <circle cx="1040" cy="120" r="180" fill="#A3E635" opacity="0.22"/>
  <circle cx="180" cy="520" r="140" fill="#65A30D" opacity="0.16"/>

  <g transform="translate(88 118)" filter="url(#shadow)">
    <rect width="112" height="112" rx="24" fill="url(#icon-bg)"/>
    <g transform="translate(56 56)">
      <path d="M0-18c-5.5 0-9.5 4-9.5 9.5 0 6.5 9.5 15.5 9.5 15.5s9.5-9 9.5-15.5C9.5-14 5.5-18 0-18z" fill="#84CC16" transform="scale(2.2)"/>
      <path d="M0 8v13" stroke="#D9F99D" stroke-width="4.4" stroke-linecap="round" transform="scale(2.2)"/>
    </g>
  </g>

  <text x="224" y="198" fill="#1A1D13" font-family="Lexend, system-ui, sans-serif" font-size="108" font-weight="800" letter-spacing="-0.03em">Sprout</text>
  <text x="224" y="268" fill="#434B32" font-family="Quicksand, system-ui, sans-serif" font-size="34" font-weight="600">Install-fixer CLI for developer tools</text>
  <text x="224" y="332" fill="#6E7A52" font-family="JetBrains Mono, monospace" font-size="24" font-weight="500">detect → plan → confirm → verify</text>

  <rect x="224" y="382" width="500" height="58" rx="10" fill="#1A1D13"/>
  <text x="248" y="420" fill="#D9F99D" font-family="JetBrains Mono, monospace" font-size="24" font-weight="600">npm install -g sprout-cli</text>

  <text x="224" y="500" fill="#5A6342" font-family="Quicksand, system-ui, sans-serif" font-size="22" font-weight="500">macOS · Linux · PATH · package managers · MIT licensed</text>
</svg>